<?xml version="1.0" encoding="utf-8"?>
<!-- Generator: Adobe Illustrator 22.0.0, SVG Export Plug-In . SVG Version: 6.00 Build 0)  -->
<svg version="1.1" id="Layer_1" xmlns="http://www.w3.org/2000/svg" xmlns:xlink="http://www.w3.org/1999/xlink" x="0px" y="0px"
	 viewBox="0 0 300 200" style="enable-background:new 0 0 300 200;" xml:space="preserve">
<style type="text/css">
	.st0{fill:#F4DD6E;}
	.st1{fill:#E53535;}
	.st2{fill:none;stroke:#E53535;stroke-width:2;stroke-miterlimit:10;}
	.st3{fill:#555555;}
	.st4{font-family:'Headline37';}
	.st5{font-size:32px;}
	.st6{font-family:'akaPosse';}
	.st7{font-size:10px;}
	.st8{fill:none;}
	.st9{font-size:15px;}
</style>
<g>
	<path class="st0" d="M39,157c-0.5-4.7-4.2-8.5-9-9V51c4.7-0.5,8.5-4.2,9-9h226.1c0,0.3-0.1,0.7-0.1,1c0,5.2,4,9.4,9,10V148
		c-4.7,0.5-8.5,4.2-9,9H39z"/>
	<path class="st1" d="M264,43c0,5.4,3.9,9.9,9,10.8v93.4c-4.5,0.8-8,4.4-8.8,8.8H39.8c-0.8-4.5-4.4-8-8.8-8.8V51.8
		c4.5-0.8,8-4.4,8.8-8.8H264 M266.2,41H38c0,5-4,9-9,9v99c5,0,9,4,9,9h228c0-5,4-9,9-9V52c-5,0-9-4-9-9
		C266,42.3,266.1,41.6,266.2,41L266.2,41z"/>
</g>
<g>
	<path class="st0" d="M51.1,147.5c-5.5,0-10.1-4.5-10.1-10.1V59.7c0-5.5,4.5-10.1,10.1-10.1h202.9c5.5,0,10.1,4.5,10.1,10.1v77.8
		c0,5.5-4.5,10.1-10.1,10.1H51.1z"/>
	<path class="st1" d="M253.9,50.6c5,0,9.1,4.1,9.1,9.1v77.8c0,5-4.1,9.1-9.1,9.1H51.1c-5,0-9.1-4.1-9.1-9.1V59.7
		c0-5,4.1-9.1,9.1-9.1H253.9 M253.9,48.6H51.1c-6.1,0-11.1,4.9-11.1,11.1v77.8c0,6.1,4.9,11.1,11.1,11.1h202.9
		c6.1,0,11.1-4.9,11.1-11.1V59.7C265,53.6,260.1,48.6,253.9,48.6L253.9,48.6z"/>
</g>
<g>
	<line class="st2" x1="63.5" y1="49.5" x2="63.5" y2="147.5"/>
</g>
<g>
	<line class="st2" x1="240.4" y1="48.6" x2="240.4" y2="148.5"/>
</g>
<text transform="matrix(1 0 0 1 100 138)" class="st3 st4 st5">ADMIT ONE</text>
<text transform="matrix(1 0 0 1 101.3296 66)"><tspan x="0" y="0" class="st3 st6 st7">MELBOURNE HISTORICAL  </tspan><tspan x="25.9" y="12" class="st3 st6 st7">CRIME TOUR</tspan></text>
<rect x="90" y="91" class="st8" width="157" height="11"/>
<text transform="matrix(1 0 0 1 90 101.4551)" class="st3 st4 st9">3DJ7B-YVCMG-KNPNU-B4ESQ</text>
</svg>
